<?xml version="1.0" encoding="UTF-8"?>
<svg id="Capa_1" xmlns="http://www.w3.org/2000/svg" version="1.1" viewBox="0 0 56 56">
  <!-- Generator: Adobe Illustrator 29.7.1, SVG Export Plug-In . SVG Version: 2.1.1 Build 8)  -->
  <defs>
    <style>
      .st0 {
        fill: #042304;
      }
    </style>
  </defs>
  <path class="st0" d="M28,33.3c-2.92,0-5.3-2.38-5.3-5.3s2.38-5.3,5.3-5.3,5.3,2.38,5.3,5.3-2.38,5.3-5.3,5.3ZM28,25.59c-1.33,0-2.41,1.08-2.41,2.41s1.08,2.41,2.41,2.41,2.41-1.08,2.41-2.41-1.08-2.41-2.41-2.41Z"/>
  <path class="st0" d="M28,43.7c-.8,0-1.45-.65-1.45-1.45v-9.64c0-.8.65-1.45,1.45-1.45s1.45.65,1.45,1.45v9.64c0,.8-.65,1.45-1.45,1.45ZM28,24.82c-.8,0-1.45-.65-1.45-1.45v-9.64c0-.8.65-1.45,1.45-1.45s1.45.65,1.45,1.45v9.64c0,.8-.65,1.45-1.45,1.45Z"/>
  <g>
    <path class="st0" d="M48.94,12.92c-1.56-1.78-3.73-1.78-7.67-1.78H14.73c-3.94,0-6.11,0-7.67,1.78-1.49,1.7-1.49,3.96-1.49,8.47v13.22c0,4.51,0,6.77,1.49,8.47,1.56,1.78,3.73,1.78,7.67,1.78h26.54c3.94,0,6.11,0,7.67-1.78,1.49-1.7,1.49-3.96,1.49-8.47v-13.22c0-4.51,0-6.77-1.49-8.47ZM47.53,34.61c0,3.67,0,5.69-.77,6.57-.67.77-2.08.8-5.49.8H14.73c-3.41,0-4.82-.03-5.49-.8-.77-.88-.77-2.9-.77-6.57v-13.22c0-3.67,0-5.69.77-6.57.67-.77,2.08-.8,5.49-.8h26.54c3.41,0,4.82.03,5.49.8.77.88.77,2.9.77,6.57v13.22Z"/>
    <path class="st0" d="M48.98,35.23h-4.82c-1.86,0-3.37-1.51-3.37-3.37v-7.71c0-1.86,1.51-3.37,3.37-3.37h4.82c.8,0,1.45.65,1.45,1.45s-.65,1.45-1.45,1.45h-4.82c-.27,0-.48.22-.48.48v7.71c0,.27.22.48.48.48h4.82c.8,0,1.45.65,1.45,1.45s-.65,1.45-1.45,1.45Z"/>
    <path class="st0" d="M11.84,35.23h-4.82c-.8,0-1.45-.65-1.45-1.45s.65-1.45,1.45-1.45h4.82c.27,0,.48-.22.48-.48v-7.71c0-.27-.22-.48-.48-.48h-4.82c-.8,0-1.45-.65-1.45-1.45s.65-1.45,1.45-1.45h4.82c1.86,0,3.37,1.51,3.37,3.37v7.71c0,1.86-1.51,3.37-3.37,3.37Z"/>
  </g>
</svg>